# xmcd CD database file
#
# Track frame offsets:
#	150
#	18733
#	46793
#	64015
#	88872
#	121099
#	133230
#	147222
#	161202
#	175964
#	192183
#	207634
#	221171
#	235792
#	251332
#	264410
#	278359
#	291222
#	302022
#
# Disc length: 4340 seconds
#
# Revision: 0
# Processed by: cddbd v1.5PL3 Copyright (c) Steve Scherf et al.
# Submitted via: CDex 1.51
#
DISCID=1d10f213
DTITLE=At The Beginning There Was The Blues - At The Beginning There Was The Blues
DYEAR=1900
DGENRE=Blues
TTITLE0=Buddy Guy/ Mr Downchild
TTITLE1=Ronnie Earl/ Blues For Martin Luther King
TTITLE2=Ronnie Earl/ T Bone Boogie
TTITLE3=Ronnie Earl/ Round Midnight
TTITLE4=Ronnie Earl/ For Abby
TTITLE5=Charlie Musselwhite/ My Road Lies in Darkness
TTITLE6=Louis Armstrong/ When Your Love is Gone
TTITLE7=Louis Armstrong/ Lazy River
TTITLE8=Louis Armstrong/ Chinatown My Chinatown
TTITLE9=Louis Armstrong/ Stardust
TTITLE10=Louis Armstrong/ Stardust
TTITLE11=Louis Armstrong/ Between The Devil and The Deep Blue Sea
TTITLE12=Louis Armstrong/ I've Got The Worl On A String
TTITLE13=Louis Armstrong/ Basin Street Blues
TTITLE14=Louis Armstrong/ On the Sunny Side of the Street
TTITLE15=Louis Armstrong/ On the Sunny Side of the Street
TTITLE16=Louis Armstrong/ Song of the Vispers
TTITLE17=Little Roy Milton/ Information Blues
TTITLE18=Marcia Ball/ Louisiana 1927
EXTD=
EXTT0=
EXTT1=
EXTT2=
EXTT3=
EXTT4=
EXTT5=
EXTT6=
EXTT7=
EXTT8=
EXTT9=
EXTT10=
EXTT11=
EXTT12=
EXTT13=
EXTT14=
EXTT15=
EXTT16=
EXTT17=
EXTT18=
PLAYORDER=
